<svg id="Layer_1" data-name="Layer 1" xmlns="http://www.w3.org/2000/svg" viewBox="0 0 229.26 59.64"><defs><style>.cls-1{fill:red;}.cls-2{fill:#4d4d4d;}</style></defs><title>logo</title><path class="cls-1" d="M8.35,48.06S19.7,33.18,24.23,31.57c1.67-.62,4.65.93,4.15,3-.44,2.91-4.84,11.4-5.89,13.88,0,0,11.72-14.44,16.61-16.24,2.48-.87,4.47,1.67,3.85,3-1.49,3.28-8.19,15.49-5.71,16.67,1.49.75,10.67-10.35,12.53-13.39.74-.8,1.55.31,1.24.93C50.26,41.61,42.7,52,39.6,53.45s-6.94-.55-6.94-3.16c.06-5,6.44-14.81,5.89-15.12-1.62-.81-16.06,16.11-16.68,18s-5.21-.31-4.4-2.3c1-2,7.81-16.24,6.07-16.24C22.12,34.67,8.6,50.79,8.17,52.9c-1,1.24-5-.38-4.9-2,.12-2.54,9.05-16.8,9.73-19.4,1.06-1,3.6.12,3.29,1.49C15.79,35.29,8.35,48.06,8.35,48.06Z" transform="translate(-3.27 -9.75)"/><path class="cls-1" d="M59.5,56.24c4.9-.43,9-.43,10.29.19s.75,1-.24,1.43c-.93-.44-5.89-.31-11.53.49-4.53,6.08-10.61,11-16.5,11-3.72,0-7.56-2.85-6.38-5.46C36.69,60.65,46,58.1,54.61,56.86c2.85-3.9,3.9-6.75,5.39-9.92.56-1.11,1.12-2.41,1.74-3.84-3.41,4.53-8.25,10.23-10.23,10.48-2.17.37-6.45-1.18-6.2-4.28.68-6.14,7-16.24,8.24-18,.93-1.3,4.71-.25,4.65,1.18-.74.68-3.72,5.58-6,10.29-2.23,4.52-3.78,8.93-2,9.05.93.12,5.21-4.22,9.24-9a72.62,72.62,0,0,0,7.32-10.35c1.42-2.79,4.27-.75,4.46.49-.62.5-4.4,7.63-8,16.49A42.65,42.65,0,0,1,59.5,56.24Zm-6.82,3.1a46.07,46.07,0,0,0-5.33,1.43c-8,2.79-10.85,6.08-7.81,6.45,2.73.37,6.51-.5,12.21-6.82Z" transform="translate(-3.27 -9.75)"/><path class="cls-2" d="M112.71,52.71H94.88V50.56l2.1-.18A6.32,6.32,0,0,0,98.87,50a2.62,2.62,0,0,0,1.34-1.11,3.85,3.85,0,0,0,.42-1.92V31.7H80.44v15a4,4,0,0,0,.35,1.78,3,3,0,0,0,1.37,1.27,7.39,7.39,0,0,0,1.83.55,13.7,13.7,0,0,0,2.08.3v2.15H68.24V50.56l2.1-.18A6.32,6.32,0,0,0,72.23,50a2.62,2.62,0,0,0,1.34-1.11A3.85,3.85,0,0,0,74,47V16a4,4,0,0,0-.39-1.77A2.74,2.74,0,0,0,72.23,13a13.52,13.52,0,0,0-4-1.06V9.75H86.07V11.9a13.65,13.65,0,0,0-2.08.27,16.93,16.93,0,0,0-1.83.46,2.14,2.14,0,0,0-1.37,1.21,4.66,4.66,0,0,0-.35,1.85V29h20.19V16a4,4,0,0,0-.39-1.77A2.74,2.74,0,0,0,98.87,13a13.52,13.52,0,0,0-4-1.06V9.75h17.83V11.9a13.38,13.38,0,0,0-2.07.27,16.62,16.62,0,0,0-1.84.46,2.14,2.14,0,0,0-1.37,1.21,4.66,4.66,0,0,0-.35,1.85v31a4,4,0,0,0,.35,1.78,3,3,0,0,0,1.37,1.27,7.35,7.35,0,0,0,1.84.55,13.43,13.43,0,0,0,2.07.3Z" transform="translate(-3.27 -9.75)"/><path class="cls-2" d="M147.1,37.48a19.57,19.57,0,0,1-1,6.19,14.93,14.93,0,0,1-2.85,5.17,13.29,13.29,0,0,1-4.85,3.6,15.51,15.51,0,0,1-6.18,1.18,13.92,13.92,0,0,1-5.43-1.08,13.61,13.61,0,0,1-4.57-3.13,15,15,0,0,1-3.14-4.95,17.49,17.49,0,0,1-1.16-6.55A16.28,16.28,0,0,1,122,26.46a14.91,14.91,0,0,1,21-.22Q147.1,30.46,147.1,37.48Zm-6.27.06a27.31,27.31,0,0,0-.45-4.79A15.24,15.24,0,0,0,139,28.46a8.33,8.33,0,0,0-2.54-3,6.44,6.44,0,0,0-3.86-1.14,6.84,6.84,0,0,0-4,1.15,8.5,8.5,0,0,0-2.69,3.15,13.79,13.79,0,0,0-1.36,4.21,27.08,27.08,0,0,0-.4,4.57,29.13,29.13,0,0,0,.47,5.38,15.94,15.94,0,0,0,1.5,4.4,8.57,8.57,0,0,0,2.6,3,6.5,6.5,0,0,0,3.86,1.11,6.75,6.75,0,0,0,6-3.67Q140.82,44,140.83,37.54Z" transform="translate(-3.27 -9.75)"/><path class="cls-2" d="M202.47,52.71H187.94v-2l1.41-.12a5.44,5.44,0,0,0,1.25-.24,2.17,2.17,0,0,0,1.26-1,3.47,3.47,0,0,0,.41-1.78V32.22a7.34,7.34,0,0,0-1.44-4.86,4.51,4.51,0,0,0-3.59-1.71,8.4,8.4,0,0,0-2.78.45,8.7,8.7,0,0,0-2.39,1.27,7.46,7.46,0,0,0-1.47,1.44,12.68,12.68,0,0,0-.9,1.29V47.32a3.68,3.68,0,0,0,.37,1.74,2.34,2.34,0,0,0,1.24,1,12,12,0,0,0,1.25.41,9.32,9.32,0,0,0,1.47.19v2H169.8v-2l1.35-.12a5.43,5.43,0,0,0,1.2-.24,2.18,2.18,0,0,0,1.25-1,3.38,3.38,0,0,0,.41-1.78V32.22a7.34,7.34,0,0,0-1.44-4.86A4.51,4.51,0,0,0,169,25.65a8,8,0,0,0-2.8.47,9,9,0,0,0-2.39,1.28,7.29,7.29,0,0,0-1.49,1.5c-.41.56-.71,1-.91,1.26v17.1a3.31,3.31,0,0,0,.42,1.73,2.74,2.74,0,0,0,1.27,1.06,6.35,6.35,0,0,0,1.31.45,9.94,9.94,0,0,0,1.48.21v2h-14.5v-2l1.44-.12a5.51,5.51,0,0,0,1.28-.24,2.17,2.17,0,0,0,1.26-1,3.46,3.46,0,0,0,.41-1.77V29.09a3.51,3.51,0,0,0-.44-1.74A3.93,3.93,0,0,0,154.09,26a5.19,5.19,0,0,0-1.42-.59,9.24,9.24,0,0,0-1.76-.29v-2l10-.66.43.42v4.27h.21c.5-.5,1.12-1.1,1.85-1.79a15.84,15.84,0,0,1,2-1.66,9.25,9.25,0,0,1,2.64-1.21A11.87,11.87,0,0,1,171.5,22a8.14,8.14,0,0,1,5,1.56,8.87,8.87,0,0,1,3,3.77l1.92-1.86a16.61,16.61,0,0,1,2.19-1.71,9.84,9.84,0,0,1,2.71-1.27,11.71,11.71,0,0,1,3.46-.49,7.58,7.58,0,0,1,6,2.49Q198,27,198,32.15V47.32a3.69,3.69,0,0,0,.36,1.74,2.38,2.38,0,0,0,1.24,1,9.74,9.74,0,0,0,1.38.41,12.28,12.28,0,0,0,1.53.19Z" transform="translate(-3.27 -9.75)"/><path class="cls-2" d="M232.53,45.69a15.33,15.33,0,0,1-5,5.69,12.68,12.68,0,0,1-7.24,2.12A14.8,14.8,0,0,1,214,52.23a12.34,12.34,0,0,1-4.47-3.46,14.49,14.49,0,0,1-2.61-5.08,21.36,21.36,0,0,1-.87-6.15,18,18,0,0,1,.93-5.7,15.91,15.91,0,0,1,2.7-5,13,13,0,0,1,4.29-3.47A12.32,12.32,0,0,1,219.67,22a14,14,0,0,1,5.6,1,10.05,10.05,0,0,1,3.78,2.82,11.14,11.14,0,0,1,2.07,4,17.37,17.37,0,0,1,.68,5v2H212a23.16,23.16,0,0,0,.56,5.34,12.72,12.72,0,0,0,1.77,4.22,8.35,8.35,0,0,0,3.09,2.77,9.48,9.48,0,0,0,4.54,1,8.29,8.29,0,0,0,4.64-1.27,12.35,12.35,0,0,0,3.77-4.54ZM225.84,34.3a23.66,23.66,0,0,0-.29-3.62,11.27,11.27,0,0,0-.92-3.23,6.09,6.09,0,0,0-1.91-2.26,5.19,5.19,0,0,0-3.12-.88A6.48,6.48,0,0,0,214.32,27,12.3,12.3,0,0,0,212,34.3Z" transform="translate(-3.27 -9.75)"/></svg>